<svg xmlns="http://www.w3.org/2000/svg" viewBox="0 0 81.45 88"><title>o piece</title><path d="M90.72,49.3A56,56,0,0,1,87.9,67.5a40.35,40.35,0,0,1-8.12,14.14,36,36,0,0,1-13,9.13A45.21,45.21,0,0,1,49.17,94a47.8,47.8,0,0,1-16.75-2.74,32.44,32.44,0,0,1-12.53-8.17A36.16,36.16,0,0,1,12,69.49a60.11,60.11,0,0,1-2.73-19,55.11,55.11,0,0,1,2.86-18.25,39.66,39.66,0,0,1,8.21-14,36.52,36.52,0,0,1,13.06-9A45.15,45.15,0,0,1,50.83,6,47.65,47.65,0,0,1,67.67,8.78,32.69,32.69,0,0,1,80.19,17,36.23,36.23,0,0,1,88,30.59,59.09,59.09,0,0,1,90.72,49.3Zm-21.06.49q0-13.09-4.94-19.7T50.17,23.5a18.36,18.36,0,0,0-9,2.07A17.52,17.52,0,0,0,35,31.26a25.33,25.33,0,0,0-3.53,8.41A45.71,45.71,0,0,0,30.34,50q0,13.18,5.31,19.86T50.17,76.5a18.17,18.17,0,0,0,8.79-2A16.53,16.53,0,0,0,65,68.83a27.34,27.34,0,0,0,3.49-8.5A45.88,45.88,0,0,0,69.66,49.79Z" transform="translate(-9.28 -6)"/></svg>