<svg xmlns="http://www.w3.org/2000/svg" xmlns:xlink="http://www.w3.org/1999/xlink" viewBox="0 0 499.77 499.77"><defs><style>.a{fill:url(#a);}</style><linearGradient id="a" x1="250.12" y1="499.69" x2="250.12" y2="-0.08" gradientUnits="userSpaceOnUse"><stop offset="0.14" stop-color="#ff7bac"/><stop offset="0.19" stop-color="#ff96bd" stop-opacity="0.99"/><stop offset="0.28" stop-color="#ffbcd5" stop-opacity="0.97"/><stop offset="0.37" stop-color="#ffd9e7" stop-opacity="0.96"/><stop offset="0.45" stop-color="#ffeef5" stop-opacity="0.95"/><stop offset="0.55" stop-color="#fffbfc" stop-opacity="0.94"/><stop offset="0.65" stop-color="#fff" stop-opacity="0.94"/><stop offset="0.75" stop-color="#fdffff" stop-opacity="0.94"/><stop offset="0.79" stop-color="#f6ffff" stop-opacity="0.94"/><stop offset="0.81" stop-color="#e9ffff" stop-opacity="0.94"/><stop offset="0.83" stop-color="#d7ffff" stop-opacity="0.93"/><stop offset="0.85" stop-color="#c0ffff" stop-opacity="0.93"/><stop offset="0.87" stop-color="#a3ffff" stop-opacity="0.93"/><stop offset="0.88" stop-color="#80ffff" stop-opacity="0.92"/><stop offset="0.89" stop-color="#58ffff" stop-opacity="0.91"/><stop offset="0.91" stop-color="#2cffff" stop-opacity="0.91"/><stop offset="0.92" stop-color="aqua" stop-opacity="0.9"/></linearGradient></defs><title>tictactoeSvg500px</title><path class="a" d="M493.2,165a6.81,6.81,0,0,0,6.8-6.8v-5a6.8,6.8,0,0,0-6.8-6.8H353.53V6.73a6.81,6.81,0,0,0-6.81-6.81h-4.94A6.81,6.81,0,0,0,335,6.73V146.4H165.26V6.73a6.8,6.8,0,0,0-6.8-6.81h-5a6.81,6.81,0,0,0-6.8,6.81V146.4H7a6.8,6.8,0,0,0-6.81,6.8v5A6.81,6.81,0,0,0,7,165H146.71V334.66H7a6.81,6.81,0,0,0-6.81,6.8v5A6.8,6.8,0,0,0,7,353.21H146.71V492.88a6.81,6.81,0,0,0,6.8,6.81h5a6.8,6.8,0,0,0,6.8-6.81V353.21H335V492.88a6.81,6.81,0,0,0,6.81,6.81h4.94a6.81,6.81,0,0,0,6.81-6.81V353.21H493.2a6.8,6.8,0,0,0,6.8-6.8v-5a6.81,6.81,0,0,0-6.8-6.8H353.53V165ZM353.53,150.18H493.2a3,3,0,0,1,3,3v5a3,3,0,0,1-3,3H353.53ZM146.71,349.43H7a3,3,0,0,1-3-3v-5a3,3,0,0,1,3-3H146.71Zm0-188.26H7a3,3,0,0,1-3-3v-5a3,3,0,0,1,3-3H146.71Zm14.77,331.71a3,3,0,0,1-3,3h-5a3,3,0,0,1-3-3V353.21h11Zm0-143.45h-11v-11h11Zm0-14.77h-11V165h11Zm0-173.49h-11v-11h11Zm0-14.77h-11V6.73a3,3,0,0,1,3-3h5a3,3,0,0,1,3,3ZM335,349.43H165.26v-11H335Zm0-14.77H165.26V165H335Zm0-173.49H165.26v-11H335Zm14.78,331.71a3,3,0,0,1-3,3h-4.94a3,3,0,0,1-3-3V353.21h11Zm0-143.45h-11v-11h11Zm0-14.77h-11V165h11Zm0-173.49h-11v-11h11Zm0-14.77h-11V6.73a3,3,0,0,1,3-3h4.94a3,3,0,0,1,3,3Zm143.45,192a3,3,0,0,1,3,3v5a3,3,0,0,1-3,3H353.53v-11Z" transform="translate(-0.23 0.08)"/></svg>