<svg xmlns="http://www.w3.org/2000/svg" xmlns:xlink="http://www.w3.org/1999/xlink" viewBox="0 0 500 500"><defs><style>.a{fill:url(#a);}.b{fill:url(#b);}.c{fill:url(#c);}.d{fill:url(#d);}</style><linearGradient id="a" x1="587.47" y1="346.5" x2="617.17" y2="346.5" gradientTransform="matrix(1, 0, 0, -1, -352.5, 746.5)" gradientUnits="userSpaceOnUse"><stop offset="0.14" stop-color="#ff7bac"/><stop offset="0.19" stop-color="#ff96bd" stop-opacity="0.99"/><stop offset="0.28" stop-color="#ffbcd5" stop-opacity="0.97"/><stop offset="0.37" stop-color="#ffd9e7" stop-opacity="0.96"/><stop offset="0.45" stop-color="#ffeef5" stop-opacity="0.95"/><stop offset="0.55" stop-color="#fffbfc" stop-opacity="0.94"/><stop offset="0.65" stop-color="#fff" stop-opacity="0.94"/><stop offset="0.75" stop-color="#fdffff" stop-opacity="0.94"/><stop offset="0.79" stop-color="#f6ffff" stop-opacity="0.94"/><stop offset="0.81" stop-color="#e9ffff" stop-opacity="0.94"/><stop offset="0.83" stop-color="#d7ffff" stop-opacity="0.93"/><stop offset="0.85" stop-color="#c0ffff" stop-opacity="0.93"/><stop offset="0.87" stop-color="#a3ffff" stop-opacity="0.93"/><stop offset="0.88" stop-color="#80ffff" stop-opacity="0.92"/><stop offset="0.89" stop-color="#58ffff" stop-opacity="0.91"/><stop offset="0.91" stop-color="#2cffff" stop-opacity="0.91"/><stop offset="0.92" stop-color="aqua" stop-opacity="0.9"/></linearGradient><linearGradient id="b" x1="888.83" x2="918.53" xlink:href="#a"/><linearGradient id="c" x1="753" y1="512.03" x2="753" y2="482.33" xlink:href="#a"/><linearGradient id="d" x1="753" y1="210.67" x2="753" y2="180.97" xlink:href="#a"/></defs><title>ticTacToeSvg800px</title><path class="a" d="M253.78,6.05a4.84,4.84,0,0,1,4.84,4.84V789.11a4.84,4.84,0,0,1-4.84,4.84h-7.92a4.84,4.84,0,0,1-4.84-4.84V10.89a4.84,4.84,0,0,1,4.84-4.84h7.92m0-6h-7.92A10.9,10.9,0,0,0,235,10.89V789.11A10.9,10.9,0,0,0,245.86,800h7.92a10.9,10.9,0,0,0,10.89-10.89V10.89A10.9,10.9,0,0,0,253.78,0Z" transform="translate(-0.5)"/><path class="b" d="M555.14,6.05A4.84,4.84,0,0,1,560,10.89V789.11a4.84,4.84,0,0,1-4.84,4.84h-7.92a4.84,4.84,0,0,1-4.84-4.84V10.89a4.84,4.84,0,0,1,4.84-4.84h7.92m0-6h-7.92a10.9,10.9,0,0,0-10.89,10.89V789.11A10.9,10.9,0,0,0,547.22,800h7.92A10.9,10.9,0,0,0,566,789.11V10.89A10.9,10.9,0,0,0,555.14,0Z" transform="translate(-0.5)"/><path class="c" d="M789.61,240.52a4.84,4.84,0,0,1,4.84,4.84v7.92a4.84,4.84,0,0,1-4.84,4.84H11.39a4.84,4.84,0,0,1-4.84-4.84v-7.92a4.84,4.84,0,0,1,4.84-4.84H789.61m0-6.05H11.39A10.9,10.9,0,0,0,.5,245.36v7.92a10.9,10.9,0,0,0,10.89,10.89H789.61a10.9,10.9,0,0,0,10.89-10.89v-7.92A10.9,10.9,0,0,0,789.61,234.47Z" transform="translate(-0.5)"/><path class="d" d="M789.61,541.88a4.84,4.84,0,0,1,4.84,4.84v7.92a4.84,4.84,0,0,1-4.84,4.84H11.39a4.84,4.84,0,0,1-4.84-4.84v-7.92a4.84,4.84,0,0,1,4.84-4.84H789.61m0-6H11.39A10.9,10.9,0,0,0,.5,546.72v7.92a10.9,10.9,0,0,0,10.89,10.89H789.61a10.9,10.9,0,0,0,10.89-10.89v-7.92A10.9,10.9,0,0,0,789.61,535.83Z" transform="translate(-0.5)"/></svg>