<svg xmlns="http://www.w3.org/2000/svg" xmlns:xlink="http://www.w3.org/1999/xlink" viewBox="0 0 661 661"><defs><style>.a{fill:url(#a);}.b{fill:url(#b);}.c{fill:url(#c);}.d{fill:url(#d);}</style><linearGradient id="a" x1="546.23" y1="384" x2="570.77" y2="384" gradientUnits="userSpaceOnUse"><stop offset="0.14" stop-color="#ff7bac"/><stop offset="0.19" stop-color="#ff96bd" stop-opacity="0.99"/><stop offset="0.28" stop-color="#ffbcd5" stop-opacity="0.97"/><stop offset="0.37" stop-color="#ffd9e7" stop-opacity="0.96"/><stop offset="0.45" stop-color="#ffeef5" stop-opacity="0.95"/><stop offset="0.55" stop-color="#fffbfc" stop-opacity="0.94"/><stop offset="0.65" stop-color="#fff" stop-opacity="0.94"/><stop offset="0.75" stop-color="#fdffff" stop-opacity="0.94"/><stop offset="0.79" stop-color="#f6ffff" stop-opacity="0.94"/><stop offset="0.81" stop-color="#e9ffff" stop-opacity="0.94"/><stop offset="0.83" stop-color="#d7ffff" stop-opacity="0.93"/><stop offset="0.85" stop-color="#c0ffff" stop-opacity="0.93"/><stop offset="0.87" stop-color="#a3ffff" stop-opacity="0.93"/><stop offset="0.88" stop-color="#80ffff" stop-opacity="0.92"/><stop offset="0.89" stop-color="#58ffff" stop-opacity="0.91"/><stop offset="0.91" stop-color="#2cffff" stop-opacity="0.91"/><stop offset="0.92" stop-color="aqua" stop-opacity="0.9"/></linearGradient><linearGradient id="b" x1="795.23" x2="819.77" xlink:href="#a"/><linearGradient id="c" x1="683" y1="247.23" x2="683" y2="271.77" xlink:href="#a"/><linearGradient id="d" x1="683" y1="496.23" x2="683" y2="520.77" xlink:href="#a"/></defs><title>ticTacToe svg</title><path class="a" d="M561.77,58.5a4,4,0,0,1,4,4v643a4,4,0,0,1-4,4h-6.54a4,4,0,0,1-4-4V62.5a4,4,0,0,1,4-4h6.54m0-5h-6.54a9,9,0,0,0-9,9v643a9,9,0,0,0,9,9h6.54a9,9,0,0,0,9-9V62.5a9,9,0,0,0-9-9Z" transform="translate(-352.5 -53.5)"/><path class="b" d="M810.77,58.5a4,4,0,0,1,4,4v643a4,4,0,0,1-4,4h-6.54a4,4,0,0,1-4-4V62.5a4,4,0,0,1,4-4h6.54m0-5h-6.54a9,9,0,0,0-9,9v643a9,9,0,0,0,9,9h6.54a9,9,0,0,0,9-9V62.5a9,9,0,0,0-9-9Z" transform="translate(-352.5 -53.5)"/><path class="c" d="M1004.5,252.23a4,4,0,0,1,4,4v6.54a4,4,0,0,1-4,4h-643a4,4,0,0,1-4-4v-6.54a4,4,0,0,1,4-4h643m0-5h-643a9,9,0,0,0-9,9v6.54a9,9,0,0,0,9,9h643a9,9,0,0,0,9-9v-6.54a9,9,0,0,0-9-9Z" transform="translate(-352.5 -53.5)"/><path class="d" d="M1004.5,501.23a4,4,0,0,1,4,4v6.54a4,4,0,0,1-4,4h-643a4,4,0,0,1-4-4v-6.54a4,4,0,0,1,4-4h643m0-5h-643a9,9,0,0,0-9,9v6.54a9,9,0,0,0,9,9h643a9,9,0,0,0,9-9v-6.54a9,9,0,0,0-9-9Z" transform="translate(-352.5 -53.5)"/></svg>